<svg width="36" height="36" fill="none" xmlns="http://www.w3.org/2000/svg"><path d="M30.462 26.562c2.83-3.072 2.546-7.017 2.537-7.062v-12a1.5 1.5 0 00-1.5-1.5h-9c-1.655 0-3 1.346-3 3v10.5a1.5 1.5 0 001.5 1.5h4.617a4.335 4.335 0 01-.644 2.094c-.762 1.201-2.197 2.022-4.269 2.436l-1.204.24V30h1.5c4.174 0 7.359-1.157 9.463-3.438zm-16.51 0c2.832-3.072 2.545-7.017 2.536-7.062v-12a1.5 1.5 0 00-1.5-1.5h-9c-1.654 0-3 1.346-3 3v10.5a1.5 1.5 0 001.5 1.5h4.617a4.335 4.335 0 01-.643 2.094c-.762 1.201-2.198 2.022-4.27 2.436l-1.204.24V30h1.5c4.175 0 7.36-1.157 9.464-3.438z" fill="#1D1A23" opacity=".3"/></svg>