<svg width="36" height="36" viewBox="0 0 36 36" fill="none" xmlns="http://www.w3.org/2000/svg">
<g opacity="0.3">
<path d="M30.4623 26.562C33.2928 23.49 33.0078 19.545 32.9988 19.5V7.5C32.9988 7.10218 32.8407 6.72064 32.5594 6.43934C32.2781 6.15804 31.8966 6 31.4988 6H22.4988C20.8443 6 19.4988 7.3455 19.4988 9V19.5C19.4988 19.8978 19.6568 20.2794 19.9381 20.5607C20.2194 20.842 20.601 21 20.9988 21H25.6158C25.5841 21.7416 25.3625 22.4626 24.9723 23.094C24.2103 24.2955 22.7748 25.116 20.7033 25.53L19.4988 25.77V30H20.9988C25.1733 30 28.3578 28.8435 30.4623 26.562ZM13.9518 26.562C16.7838 23.49 16.4973 19.545 16.4883 19.5V7.5C16.4883 7.10218 16.3302 6.72064 16.0489 6.43934C15.7676 6.15804 15.3861 6 14.9883 6H5.98828C4.33378 6 2.98828 7.3455 2.98828 9V19.5C2.98828 19.8978 3.14632 20.2794 3.42762 20.5607C3.70893 20.842 4.09046 21 4.48828 21H9.10528C9.07359 21.7416 8.85202 22.4626 8.46178 23.094C7.69978 24.2955 6.26428 25.116 4.19278 25.53L2.98828 25.77V30H4.48828C8.66278 30 11.8473 28.8435 13.9518 26.562Z" fill="#1D1A23"/>
</g>
</svg>
